<?xml version="1.0" encoding="utf-8"?>
<!-- Generator: Adobe Illustrator 19.0.0, SVG Export Plug-In . SVG Version: 6.00 Build 0)  -->
<svg version="1.1" id="Calque_1" xmlns="http://www.w3.org/2000/svg" xmlns:xlink="http://www.w3.org/1999/xlink" x="0px" y="0px"
	 viewBox="-388 18.3 14.2 576.7" style="enable-background:new -388 18.3 14.2 576.7;" xml:space="preserve">
<style type="text/css">
	.st0{fill:none;}
	.st1{fill:#64B774;}
</style>
<rect id="XMLID_1_" x="-485.6" y="368.7" transform="matrix(-1.172624e-03 1 -1 -1.172624e-03 24.3308 768.6194)" class="st0" width="227.8" height="55.6"/>
<path id="XMLID_156_" class="st1" d="M-385.8,564.1c0,4.3,0,10-0.5,14.3c0,0.3,0.3-4.7,0.3-4.5c2,12.7-2,21,5.9,21
	c1.6,0,3.1-4.4,3.1-8.8c0.5-10.2,0.6-15.2,1.6-25.4c0-0.1,0.5-5.5,0.5-5.7c-0.1-4.2-2.5-74.6-2.5-116c0-16.2,0-36.8,0.1-61.8
	c0-25-0.9-34.8,0.6-61.3c1.1-19-0.4-47.5-0.9-94.6s1.6-82,1.6-107c0-26.4-0.9-48.7,1.2-67.7c0-0.1,0-0.2,0-0.3v-1.2
	c0-0.1,0-0.1,0-0.2c-0.5-7.9,0.8-16.1,0-24c-0.1-1.4-3-2.3-4.4-2.5l0,0c-1.7-0.4-3.3,0.8-3.5,2.5c-0.3,1.6-0.5,3.2-0.4,4.7
	c0.4,13.1,0,0.2,0,0.3c-3.2,27.9-2.8,58.8-2.1,98.1c0.5,27.7-2.8,97.4-1.9,162.1s0.9,113.3,0.9,145.6l1.7,87.7
	C-383.9,532.7-385.8,546.5-385.8,564.1z"/>
</svg>
