<?xml version="1.0" encoding="utf-8"?>
<!-- Generator: Adobe Illustrator 19.0.0, SVG Export Plug-In . SVG Version: 6.00 Build 0)  -->
<svg version="1.1" id="Calque_1" xmlns="http://www.w3.org/2000/svg" xmlns:xlink="http://www.w3.org/1999/xlink" x="0px" y="0px"
	 viewBox="0 0 14.2 576.7" style="enable-background:new 0 0 14.2 576.7;" xml:space="preserve">
<style type="text/css">
	.st0{fill:none;}
	.st1{fill:#010101;}
</style>
<rect id="XMLID_1_" x="-97.6" y="350.3" transform="matrix(1.172625e-03 -1 1 1.172625e-03 -361.813 394.0175)" class="st0" width="227.8" height="55.6"/>
<path id="XMLID_156_" class="st1" d="M2.2,545.8c0,4.3,0,10-0.5,14.3c0,0.3,0.3-4.7,0.3-4.5c2,12.7-2,21,5.9,21
	c1.6,0,3.1-4.4,3.1-8.8c0.5-10.2,0.6-15.2,1.6-25.4c0-0.1,0.5-5.5,0.5-5.7c-0.1-4.2-2.5-74.6-2.5-116c0-16.2,0-36.8,0.1-61.8
	c0-25-0.9-34.8,0.6-61.3c1.1-19-0.4-47.5-0.9-94.6S12,121,12,96c0-26.4-0.9-48.7,1.2-67.7c0-0.1,0-0.2,0-0.3l0-1.2
	c0-0.1,0-0.1,0-0.2c-0.5-7.9,0.8-16.1,0-24c-0.1-1.4-3-2.3-4.4-2.5l0,0C7.1-0.3,5.5,0.9,5.3,2.6C5,4.2,4.8,5.8,4.9,7.3
	c0.4,13.1,0,0.2,0,0.3c-3.2,27.9-2.8,58.8-2.1,98.1c0.5,27.7-2.8,97.4-1.9,162.1s0.9,113.3,0.9,145.6l1.7,87.7
	C4.1,514.4,2.2,528.2,2.2,545.8z"/>
</svg>
