<?xml version="1.0" encoding="utf-8"?>
<!-- Generator: Adobe Illustrator 19.0.0, SVG Export Plug-In . SVG Version: 6.00 Build 0)  -->
<svg version="1.1" id="Calque_1" xmlns="http://www.w3.org/2000/svg" xmlns:xlink="http://www.w3.org/1999/xlink" x="0px" y="0px"
	 viewBox="-378 303.3 30.8 7.7" style="enable-background:new -378 303.3 30.8 7.7;" xml:space="preserve">
<style type="text/css">
	.st0{fill:none;}
</style>
<rect id="XMLID_1_" x="-354.6" y="303.3" class="st0" width="20" height="12.1"/>
<g id="XMLID_4_">
	<path id="XMLID_47_" d="M-350.6,308c0.3,0,0.2-0.1,0.3,0l0.1-0.1c0.4,0,1,0.3,1.4,0.3c0,0,0,0,0.1,0c0.4-0.1,0.8-0.2,1.2-0.3
		c0.4-0.5,0.4-1-0.1-1.6c-0.1-0.1-0.2,0-0.2-0.1c-0.7,0-1.4-0.1-2.1-0.1l0,0c-0.6,0-1.4,0-2.3,0l-4.1-0.3c-2.1-0.1-5.2-0.1-9.4,0
		c-4.3,0.1-7,0.1-8.4,0.1c-0.5-0.1-0.9-0.1-1.2-0.2c-0.4,0-0.8,0-1.3,0.1c-0.4,0.2-0.9,0.5-1.4,0.7v1c0.1,0.1,0.2,0.2,0.4,0.3
		c0.5,0.1,1,0,1.5,0.1l1.7,0.1c2.6,0.1,6.6,0.1,11.9,0C-357.2,307.9-353.3,307.9-350.6,308z"/>
</g>
</svg>
