<?xml version="1.0" encoding="utf-8"?>
<!-- Generator: Adobe Illustrator 19.0.0, SVG Export Plug-In . SVG Version: 6.00 Build 0)  -->
<svg version="1.1" id="Calque_1" xmlns="http://www.w3.org/2000/svg" xmlns:xlink="http://www.w3.org/1999/xlink" x="0px" y="0px"
	 viewBox="-370 303.3 49.6 7.7" style="enable-background:new -370 303.3 49.6 7.7;" xml:space="preserve">
<style type="text/css">
	.st0{fill:none;}
	.st1{fill:#239F32;}
</style>
<rect id="XMLID_1_" x="-347.1" y="303.3" class="st0" width="20" height="12.1"/>
<path id="XMLID_157_" class="st1" d="M-322.8,305.7c-0.8,0-1.5-0.1-2.1-0.1c-0.1,0-0.1,0-0.2,0c-1.1,0.2-2.8,0.2-5.1,0.2h-5.7
	c-2.3,0-5.6,0.1-10.2,0.3c-4.6,0.2-7.9,0.3-10.2,0.3l-10.4-0.3c-0.9,0-1.6,0.2-2.3,0.4c-0.7,0.2-1,0.6-1,1.1c0,0.9,1.1,1.3,3.2,1.3
	l11.7-0.4c1.9,0,3.6,0.1,5,0.3l0,0c2.7-0.5,6-0.7,10-0.7l8.4,0.1c2.8,0,5.5-0.1,8-0.3c0,0,1.9-0.1,3-0.1c0.1,0,0.2-0.7,0.2-1.1
	c-0.1-0.6-0.5-1-1-1C-321.8,305.7-322.3,305.7-322.8,305.7z"/>
</svg>
