<?xml version="1.0" encoding="utf-8"?>
<!-- Generator: Adobe Illustrator 19.0.0, SVG Export Plug-In . SVG Version: 6.00 Build 0)  -->
<svg version="1.1" id="Calque_1" xmlns="http://www.w3.org/2000/svg" xmlns:xlink="http://www.w3.org/1999/xlink" x="0px" y="0px"
	 viewBox="0 0 49.6 7.7" style="enable-background:new 0 0 49.6 7.7;" xml:space="preserve">
<style type="text/css">
	.st0{fill:none;}
</style>
<rect id="XMLID_1_" x="22.9" class="st0" width="20" height="12.1"/>
<path id="XMLID_157_" d="M47.2,2.4c-0.8,0-1.5-0.1-2.1-0.1c-0.1,0-0.1,0-0.2,0c-1.1,0.2-2.8,0.2-5.1,0.2l-5.7,0
	c-2.3,0-5.6,0.1-10.2,0.3s-7.9,0.3-10.2,0.3L3.3,2.8C2.4,2.8,1.7,3,1,3.2S0,3.8,0,4.3c0,0.9,1.1,1.3,3.2,1.3l11.7-0.4
	c1.9,0,3.6,0.1,5,0.3l0,0c2.7-0.5,6-0.7,10-0.7l8.4,0.1c2.8,0,5.5-0.1,8-0.3c0,0,1.9-0.1,3-0.1c0.1,0,0.2-0.7,0.2-1.1
	c-0.1-0.6-0.5-1-1-1C48.2,2.4,47.7,2.4,47.2,2.4z"/>
</svg>
