<?xml version="1.0" encoding="utf-8"?>
<!-- Generator: Adobe Illustrator 19.0.0, SVG Export Plug-In . SVG Version: 6.00 Build 0)  -->
<svg version="1.1" id="Calque_1" xmlns="http://www.w3.org/2000/svg" xmlns:xlink="http://www.w3.org/1999/xlink" x="0px" y="0px"
	 viewBox="-370 303.3 50.8 7.7" style="enable-background:new -370 303.3 50.8 7.7;" xml:space="preserve">
<style type="text/css">
	.st0{fill:none;}
	.st1{fill:#F44336;}
</style>
<rect id="XMLID_1_" x="-719.6" y="606.6" class="st0" width="20" height="12.1"/>
<path id="XMLID_156_" class="st1" d="M-322,307.6c0.4,0,0.9,0,1.3,0.1c0.4-0.1,1.4-1,1.4-1.4s-0.4-0.7-0.8-0.7
	c-0.9-0.1-1.8-0.2-2.7-0.5c0,0-6.5,0.6-10.2,0.6c-1.4,0-3.2,0-5.4,0c-2.2,0-4,0-5.4,0s-4.1,0-8.3,0.1c-4.1,0.1-7.2,0.1-9.4,0.1
	c-2.3,0-4.3-0.2-5.9-0.7c0,0,0,0-0.1,0c-0.8,0.1-1.5,0.2-2.3,0.5c0,0.3,0,0.8-0.1,1.1c0.3,0.1,0.5,0.2,0.8,0.2c2.5,0.7,5.6,1,9,1
	c3.5,0,8.1,0,13.8-0.2c5.7-0.2,9.9-0.2,12.8-0.2l7.6,0.1C-324.8,307.8-323.5,307.6-322,307.6z"/>
</svg>
